<mxfile host="app.diagrams.net" modified="2021-10-17T19:40:00.100Z" agent="5.0 (Windows)" etag="tYeEQIOQ8HgYAr1jkCtR" version="15.5.4" type="github">
  <diagram id="j_119HJucZWhe9KruChj" name="Page-1">
    <mxGraphModel dx="1185" dy="683" grid="1" gridSize="10" guides="1" tooltips="1" connect="1" arrows="1" fold="1" page="1" pageScale="1" pageWidth="827" pageHeight="1169" math="0" shadow="0">
      <root>
        <mxCell id="0" />
        <mxCell id="1" parent="0" />
        <mxCell id="7iI5UENEsM4-IBYQVTLZ-40" style="rounded=0;orthogonalLoop=1;jettySize=auto;html=1;exitX=0.5;exitY=0;exitDx=0;exitDy=0;entryX=0.5;entryY=1;entryDx=0;entryDy=0;fontFamily=Tahoma;endArrow=none;endFill=0;" edge="1" parent="1" source="7iI5UENEsM4-IBYQVTLZ-1" target="7iI5UENEsM4-IBYQVTLZ-34">
          <mxGeometry relative="1" as="geometry" />
        </mxCell>
        <mxCell id="7iI5UENEsM4-IBYQVTLZ-41" style="rounded=0;orthogonalLoop=1;jettySize=auto;html=1;exitX=0.5;exitY=0;exitDx=0;exitDy=0;entryX=0.5;entryY=1;entryDx=0;entryDy=0;fontFamily=Tahoma;endArrow=none;endFill=0;" edge="1" parent="1" source="7iI5UENEsM4-IBYQVTLZ-1" target="7iI5UENEsM4-IBYQVTLZ-35">
          <mxGeometry relative="1" as="geometry" />
        </mxCell>
        <mxCell id="7iI5UENEsM4-IBYQVTLZ-42" style="rounded=0;orthogonalLoop=1;jettySize=auto;html=1;exitX=0.5;exitY=0;exitDx=0;exitDy=0;entryX=0.5;entryY=1;entryDx=0;entryDy=0;fontFamily=Tahoma;endArrow=none;endFill=0;" edge="1" parent="1" source="7iI5UENEsM4-IBYQVTLZ-1" target="7iI5UENEsM4-IBYQVTLZ-36">
          <mxGeometry relative="1" as="geometry" />
        </mxCell>
        <mxCell id="7iI5UENEsM4-IBYQVTLZ-64" style="edgeStyle=none;rounded=0;orthogonalLoop=1;jettySize=auto;html=1;exitX=0.5;exitY=0;exitDx=0;exitDy=0;entryX=0.5;entryY=1;entryDx=0;entryDy=0;fontFamily=Tahoma;endArrow=none;endFill=0;" edge="1" parent="1" source="7iI5UENEsM4-IBYQVTLZ-1" target="7iI5UENEsM4-IBYQVTLZ-63">
          <mxGeometry relative="1" as="geometry" />
        </mxCell>
        <mxCell id="7iI5UENEsM4-IBYQVTLZ-1" value="USER" style="rounded=0;whiteSpace=wrap;html=1;" vertex="1" parent="1">
          <mxGeometry x="160.01" y="150" width="120" height="60" as="geometry" />
        </mxCell>
        <mxCell id="7iI5UENEsM4-IBYQVTLZ-54" style="rounded=0;orthogonalLoop=1;jettySize=auto;html=1;exitX=0.5;exitY=0;exitDx=0;exitDy=0;entryX=0.5;entryY=1;entryDx=0;entryDy=0;fontFamily=Tahoma;endArrow=none;endFill=0;" edge="1" parent="1" source="7iI5UENEsM4-IBYQVTLZ-3" target="7iI5UENEsM4-IBYQVTLZ-52">
          <mxGeometry relative="1" as="geometry" />
        </mxCell>
        <mxCell id="7iI5UENEsM4-IBYQVTLZ-55" style="rounded=0;orthogonalLoop=1;jettySize=auto;html=1;exitX=0.5;exitY=0;exitDx=0;exitDy=0;entryX=0.5;entryY=1;entryDx=0;entryDy=0;fontFamily=Tahoma;endArrow=none;endFill=0;" edge="1" parent="1" source="7iI5UENEsM4-IBYQVTLZ-3" target="7iI5UENEsM4-IBYQVTLZ-53">
          <mxGeometry relative="1" as="geometry" />
        </mxCell>
        <mxCell id="7iI5UENEsM4-IBYQVTLZ-3" value="GENRE" style="rounded=0;whiteSpace=wrap;html=1;" vertex="1" parent="1">
          <mxGeometry x="810" y="150" width="120" height="60" as="geometry" />
        </mxCell>
        <mxCell id="7iI5UENEsM4-IBYQVTLZ-4" value="STANDARD" style="rounded=0;whiteSpace=wrap;html=1;" vertex="1" parent="1">
          <mxGeometry x="240" y="320" width="120" height="60" as="geometry" />
        </mxCell>
        <mxCell id="7iI5UENEsM4-IBYQVTLZ-5" value="PREMIUM" style="rounded=0;whiteSpace=wrap;html=1;" vertex="1" parent="1">
          <mxGeometry x="80" y="320" width="120" height="60" as="geometry" />
        </mxCell>
        <mxCell id="7iI5UENEsM4-IBYQVTLZ-7" value="SERIES" style="rounded=0;whiteSpace=wrap;html=1;" vertex="1" parent="1">
          <mxGeometry x="410" y="510" width="120" height="60" as="geometry" />
        </mxCell>
        <mxCell id="7iI5UENEsM4-IBYQVTLZ-30" style="edgeStyle=none;rounded=0;orthogonalLoop=1;jettySize=auto;html=1;exitX=0;exitY=0.75;exitDx=0;exitDy=0;entryX=0.5;entryY=0;entryDx=0;entryDy=0;endArrow=none;endFill=0;" edge="1" parent="1" source="7iI5UENEsM4-IBYQVTLZ-9" target="7iI5UENEsM4-IBYQVTLZ-4">
          <mxGeometry relative="1" as="geometry" />
        </mxCell>
        <mxCell id="7iI5UENEsM4-IBYQVTLZ-31" style="edgeStyle=none;rounded=0;orthogonalLoop=1;jettySize=auto;html=1;exitX=0;exitY=0.25;exitDx=0;exitDy=0;entryX=0.5;entryY=0;entryDx=0;entryDy=0;endArrow=none;endFill=0;" edge="1" parent="1" source="7iI5UENEsM4-IBYQVTLZ-9" target="7iI5UENEsM4-IBYQVTLZ-5">
          <mxGeometry relative="1" as="geometry" />
        </mxCell>
        <mxCell id="7iI5UENEsM4-IBYQVTLZ-32" style="edgeStyle=none;rounded=0;orthogonalLoop=1;jettySize=auto;html=1;exitX=1;exitY=0.5;exitDx=0;exitDy=0;entryX=0.5;entryY=1;entryDx=0;entryDy=0;endArrow=none;endFill=0;" edge="1" parent="1" source="7iI5UENEsM4-IBYQVTLZ-9" target="7iI5UENEsM4-IBYQVTLZ-1">
          <mxGeometry relative="1" as="geometry" />
        </mxCell>
        <mxCell id="7iI5UENEsM4-IBYQVTLZ-9" value="" style="triangle;whiteSpace=wrap;html=1;rotation=-90;" vertex="1" parent="1">
          <mxGeometry x="200.63" y="236.88" width="38.75" height="45" as="geometry" />
        </mxCell>
        <mxCell id="7iI5UENEsM4-IBYQVTLZ-46" style="rounded=0;orthogonalLoop=1;jettySize=auto;html=1;exitX=0.5;exitY=0;exitDx=0;exitDy=0;entryX=0.5;entryY=1;entryDx=0;entryDy=0;fontFamily=Tahoma;endArrow=none;endFill=0;" edge="1" parent="1" source="7iI5UENEsM4-IBYQVTLZ-11" target="7iI5UENEsM4-IBYQVTLZ-44">
          <mxGeometry relative="1" as="geometry" />
        </mxCell>
        <mxCell id="7iI5UENEsM4-IBYQVTLZ-47" style="rounded=0;orthogonalLoop=1;jettySize=auto;html=1;exitX=0.5;exitY=0;exitDx=0;exitDy=0;entryX=0.5;entryY=1;entryDx=0;entryDy=0;fontFamily=Tahoma;endArrow=none;endFill=0;" edge="1" parent="1" source="7iI5UENEsM4-IBYQVTLZ-11" target="7iI5UENEsM4-IBYQVTLZ-43">
          <mxGeometry relative="1" as="geometry" />
        </mxCell>
        <mxCell id="7iI5UENEsM4-IBYQVTLZ-50" style="rounded=0;orthogonalLoop=1;jettySize=auto;html=1;exitX=0.5;exitY=0;exitDx=0;exitDy=0;entryX=0.5;entryY=1;entryDx=0;entryDy=0;fontFamily=Tahoma;endArrow=none;endFill=0;" edge="1" parent="1" source="7iI5UENEsM4-IBYQVTLZ-11" target="7iI5UENEsM4-IBYQVTLZ-49">
          <mxGeometry relative="1" as="geometry" />
        </mxCell>
        <mxCell id="7iI5UENEsM4-IBYQVTLZ-51" value="" style="rounded=0;orthogonalLoop=1;jettySize=auto;html=1;fontFamily=Tahoma;endArrow=none;endFill=0;exitX=0.5;exitY=0;exitDx=0;exitDy=0;" edge="1" parent="1" source="7iI5UENEsM4-IBYQVTLZ-11" target="7iI5UENEsM4-IBYQVTLZ-45">
          <mxGeometry relative="1" as="geometry" />
        </mxCell>
        <mxCell id="7iI5UENEsM4-IBYQVTLZ-11" value="VIDEO" style="rounded=0;whiteSpace=wrap;html=1;" vertex="1" parent="1">
          <mxGeometry x="490" y="150" width="120" height="60" as="geometry" />
        </mxCell>
        <mxCell id="7iI5UENEsM4-IBYQVTLZ-84" style="edgeStyle=none;rounded=0;orthogonalLoop=1;jettySize=auto;html=1;exitX=0.5;exitY=1;exitDx=0;exitDy=0;entryX=0.5;entryY=0;entryDx=0;entryDy=0;fontFamily=Tahoma;endArrow=none;endFill=0;" edge="1" parent="1" source="7iI5UENEsM4-IBYQVTLZ-12" target="7iI5UENEsM4-IBYQVTLZ-83">
          <mxGeometry relative="1" as="geometry" />
        </mxCell>
        <mxCell id="7iI5UENEsM4-IBYQVTLZ-85" style="edgeStyle=none;rounded=0;orthogonalLoop=1;jettySize=auto;html=1;exitX=0.5;exitY=1;exitDx=0;exitDy=0;entryX=0.5;entryY=0;entryDx=0;entryDy=0;fontFamily=Tahoma;endArrow=none;endFill=0;" edge="1" parent="1" source="7iI5UENEsM4-IBYQVTLZ-12" target="7iI5UENEsM4-IBYQVTLZ-82">
          <mxGeometry relative="1" as="geometry" />
        </mxCell>
        <mxCell id="7iI5UENEsM4-IBYQVTLZ-12" value="MOVIE" style="rounded=0;whiteSpace=wrap;html=1;" vertex="1" parent="1">
          <mxGeometry x="570" y="320" width="120" height="60" as="geometry" />
        </mxCell>
        <mxCell id="7iI5UENEsM4-IBYQVTLZ-13" value="EPISODE" style="rounded=0;whiteSpace=wrap;html=1;" vertex="1" parent="1">
          <mxGeometry x="410" y="320" width="120" height="60" as="geometry" />
        </mxCell>
        <mxCell id="7iI5UENEsM4-IBYQVTLZ-27" style="rounded=0;orthogonalLoop=1;jettySize=auto;html=1;exitX=0;exitY=0.25;exitDx=0;exitDy=0;entryX=0.5;entryY=0;entryDx=0;entryDy=0;endArrow=none;endFill=0;" edge="1" parent="1" source="7iI5UENEsM4-IBYQVTLZ-14" target="7iI5UENEsM4-IBYQVTLZ-13">
          <mxGeometry relative="1" as="geometry" />
        </mxCell>
        <mxCell id="7iI5UENEsM4-IBYQVTLZ-28" style="edgeStyle=none;rounded=0;orthogonalLoop=1;jettySize=auto;html=1;entryX=0.5;entryY=0;entryDx=0;entryDy=0;endArrow=none;endFill=0;exitX=0;exitY=0.75;exitDx=0;exitDy=0;" edge="1" parent="1" source="7iI5UENEsM4-IBYQVTLZ-14" target="7iI5UENEsM4-IBYQVTLZ-12">
          <mxGeometry relative="1" as="geometry">
            <mxPoint x="620" y="270" as="sourcePoint" />
          </mxGeometry>
        </mxCell>
        <mxCell id="7iI5UENEsM4-IBYQVTLZ-29" style="edgeStyle=none;rounded=0;orthogonalLoop=1;jettySize=auto;html=1;exitX=1;exitY=0.5;exitDx=0;exitDy=0;entryX=0.5;entryY=1;entryDx=0;entryDy=0;endArrow=none;endFill=0;" edge="1" parent="1" source="7iI5UENEsM4-IBYQVTLZ-14" target="7iI5UENEsM4-IBYQVTLZ-11">
          <mxGeometry relative="1" as="geometry" />
        </mxCell>
        <mxCell id="7iI5UENEsM4-IBYQVTLZ-14" value="" style="triangle;whiteSpace=wrap;html=1;rotation=-90;" vertex="1" parent="1">
          <mxGeometry x="530" y="237.5" width="38.75" height="43.75" as="geometry" />
        </mxCell>
        <mxCell id="7iI5UENEsM4-IBYQVTLZ-18" style="edgeStyle=orthogonalEdgeStyle;rounded=0;orthogonalLoop=1;jettySize=auto;html=1;exitX=0;exitY=0.5;exitDx=0;exitDy=0;endArrow=doubleBlock;endFill=1;" edge="1" parent="1" source="7iI5UENEsM4-IBYQVTLZ-15" target="7iI5UENEsM4-IBYQVTLZ-1">
          <mxGeometry relative="1" as="geometry" />
        </mxCell>
        <mxCell id="7iI5UENEsM4-IBYQVTLZ-19" style="edgeStyle=orthogonalEdgeStyle;rounded=0;orthogonalLoop=1;jettySize=auto;html=1;exitX=1;exitY=0.5;exitDx=0;exitDy=0;endArrow=doubleBlock;endFill=1;" edge="1" parent="1" source="7iI5UENEsM4-IBYQVTLZ-15" target="7iI5UENEsM4-IBYQVTLZ-11">
          <mxGeometry relative="1" as="geometry" />
        </mxCell>
        <mxCell id="7iI5UENEsM4-IBYQVTLZ-15" value="Watch" style="rhombus;whiteSpace=wrap;html=1;" vertex="1" parent="1">
          <mxGeometry x="340" y="160" width="80" height="40" as="geometry" />
        </mxCell>
        <mxCell id="7iI5UENEsM4-IBYQVTLZ-20" style="edgeStyle=orthogonalEdgeStyle;rounded=0;orthogonalLoop=1;jettySize=auto;html=1;exitX=0;exitY=0.5;exitDx=0;exitDy=0;entryX=1;entryY=0.5;entryDx=0;entryDy=0;endArrow=doubleBlock;endFill=1;" edge="1" parent="1" source="7iI5UENEsM4-IBYQVTLZ-17" target="7iI5UENEsM4-IBYQVTLZ-11">
          <mxGeometry relative="1" as="geometry" />
        </mxCell>
        <mxCell id="7iI5UENEsM4-IBYQVTLZ-21" style="edgeStyle=orthogonalEdgeStyle;rounded=0;orthogonalLoop=1;jettySize=auto;html=1;exitX=1;exitY=0.5;exitDx=0;exitDy=0;entryX=0;entryY=0.5;entryDx=0;entryDy=0;endArrow=doubleBlock;endFill=1;" edge="1" parent="1" source="7iI5UENEsM4-IBYQVTLZ-17" target="7iI5UENEsM4-IBYQVTLZ-3">
          <mxGeometry relative="1" as="geometry" />
        </mxCell>
        <mxCell id="7iI5UENEsM4-IBYQVTLZ-17" value="Belong" style="rhombus;whiteSpace=wrap;html=1;" vertex="1" parent="1">
          <mxGeometry x="670" y="160" width="80" height="40" as="geometry" />
        </mxCell>
        <mxCell id="7iI5UENEsM4-IBYQVTLZ-23" style="edgeStyle=orthogonalEdgeStyle;rounded=0;orthogonalLoop=1;jettySize=auto;html=1;exitX=0.5;exitY=0;exitDx=0;exitDy=0;entryX=0.5;entryY=1;entryDx=0;entryDy=0;endArrow=doubleBlock;endFill=1;" edge="1" parent="1" source="7iI5UENEsM4-IBYQVTLZ-22" target="7iI5UENEsM4-IBYQVTLZ-13">
          <mxGeometry relative="1" as="geometry" />
        </mxCell>
        <mxCell id="7iI5UENEsM4-IBYQVTLZ-24" style="edgeStyle=orthogonalEdgeStyle;rounded=0;orthogonalLoop=1;jettySize=auto;html=1;exitX=0.5;exitY=1;exitDx=0;exitDy=0;entryX=0.5;entryY=0;entryDx=0;entryDy=0;" edge="1" parent="1" source="7iI5UENEsM4-IBYQVTLZ-22" target="7iI5UENEsM4-IBYQVTLZ-7">
          <mxGeometry relative="1" as="geometry" />
        </mxCell>
        <mxCell id="7iI5UENEsM4-IBYQVTLZ-77" style="edgeStyle=none;rounded=0;orthogonalLoop=1;jettySize=auto;html=1;entryX=1;entryY=0.5;entryDx=0;entryDy=0;fontFamily=Tahoma;endArrow=none;endFill=0;" edge="1" parent="1" source="7iI5UENEsM4-IBYQVTLZ-22" target="7iI5UENEsM4-IBYQVTLZ-74">
          <mxGeometry relative="1" as="geometry" />
        </mxCell>
        <mxCell id="7iI5UENEsM4-IBYQVTLZ-78" style="edgeStyle=none;rounded=0;orthogonalLoop=1;jettySize=auto;html=1;exitX=0.121;exitY=0.608;exitDx=0;exitDy=0;entryX=1;entryY=0.5;entryDx=0;entryDy=0;fontFamily=Tahoma;endArrow=none;endFill=0;exitPerimeter=0;" edge="1" parent="1" source="7iI5UENEsM4-IBYQVTLZ-22" target="7iI5UENEsM4-IBYQVTLZ-75">
          <mxGeometry relative="1" as="geometry" />
        </mxCell>
        <mxCell id="7iI5UENEsM4-IBYQVTLZ-22" value="Belong" style="rhombus;whiteSpace=wrap;html=1;" vertex="1" parent="1">
          <mxGeometry x="430" y="430" width="80" height="40" as="geometry" />
        </mxCell>
        <mxCell id="7iI5UENEsM4-IBYQVTLZ-38" style="rounded=0;orthogonalLoop=1;jettySize=auto;html=1;exitX=1;exitY=0.5;exitDx=0;exitDy=0;fontFamily=Tahoma;endArrow=none;endFill=0;" edge="1" parent="1" source="7iI5UENEsM4-IBYQVTLZ-33" target="7iI5UENEsM4-IBYQVTLZ-1">
          <mxGeometry relative="1" as="geometry" />
        </mxCell>
        <mxCell id="7iI5UENEsM4-IBYQVTLZ-33" value="id_user" style="ellipse;whiteSpace=wrap;html=1;fontStyle=4" vertex="1" parent="1">
          <mxGeometry x="80" y="170" width="50" height="20" as="geometry" />
        </mxCell>
        <mxCell id="7iI5UENEsM4-IBYQVTLZ-34" value="&lt;div align=&quot;center&quot;&gt;&lt;p&gt;&lt;font face=&quot;Tahoma&quot;&gt;name&lt;/font&gt;&lt;/p&gt;&lt;/div&gt;" style="ellipse;whiteSpace=wrap;html=1;align=center;" vertex="1" parent="1">
          <mxGeometry x="110.01" y="90" width="40" height="20" as="geometry" />
        </mxCell>
        <mxCell id="7iI5UENEsM4-IBYQVTLZ-35" value="&lt;div align=&quot;center&quot;&gt;&lt;p&gt;lastname&lt;/p&gt;&lt;/div&gt;" style="ellipse;whiteSpace=wrap;html=1;align=center;" vertex="1" parent="1">
          <mxGeometry x="160.32999999999998" y="90" width="59.37" height="20" as="geometry" />
        </mxCell>
        <mxCell id="7iI5UENEsM4-IBYQVTLZ-36" value="email" style="ellipse;whiteSpace=wrap;html=1;align=center;" vertex="1" parent="1">
          <mxGeometry x="230.01" y="90" width="40" height="20" as="geometry" />
        </mxCell>
        <mxCell id="7iI5UENEsM4-IBYQVTLZ-43" value="id_vid" style="ellipse;whiteSpace=wrap;html=1;align=center;fontStyle=4" vertex="1" parent="1">
          <mxGeometry x="490" y="90" width="40" height="20" as="geometry" />
        </mxCell>
        <mxCell id="7iI5UENEsM4-IBYQVTLZ-44" value="&lt;div align=&quot;center&quot;&gt;&lt;p&gt;&lt;font face=&quot;Tahoma&quot;&gt;name&lt;/font&gt;&lt;/p&gt;&lt;/div&gt;" style="ellipse;whiteSpace=wrap;html=1;align=center;" vertex="1" parent="1">
          <mxGeometry x="440" y="90" width="40" height="20" as="geometry" />
        </mxCell>
        <mxCell id="7iI5UENEsM4-IBYQVTLZ-45" value="synopsis" style="ellipse;whiteSpace=wrap;html=1;align=center;" vertex="1" parent="1">
          <mxGeometry x="550" y="90" width="60" height="20" as="geometry" />
        </mxCell>
        <mxCell id="7iI5UENEsM4-IBYQVTLZ-49" value="duration" style="ellipse;whiteSpace=wrap;html=1;align=center;" vertex="1" parent="1">
          <mxGeometry x="620" y="90" width="50" height="20" as="geometry" />
        </mxCell>
        <mxCell id="7iI5UENEsM4-IBYQVTLZ-52" value="&lt;div align=&quot;center&quot;&gt;&lt;p&gt;&lt;font face=&quot;Tahoma&quot;&gt;name&lt;/font&gt;&lt;/p&gt;&lt;/div&gt;" style="ellipse;whiteSpace=wrap;html=1;align=center;" vertex="1" parent="1">
          <mxGeometry x="820" y="90" width="40" height="20" as="geometry" />
        </mxCell>
        <mxCell id="7iI5UENEsM4-IBYQVTLZ-53" value="id_gen" style="ellipse;whiteSpace=wrap;html=1;align=center;fontStyle=4" vertex="1" parent="1">
          <mxGeometry x="870" y="90" width="50" height="20" as="geometry" />
        </mxCell>
        <mxCell id="7iI5UENEsM4-IBYQVTLZ-62" style="edgeStyle=none;rounded=0;orthogonalLoop=1;jettySize=auto;html=1;exitX=0.5;exitY=0;exitDx=0;exitDy=0;fontFamily=Tahoma;endArrow=none;endFill=0;" edge="1" parent="1" source="7iI5UENEsM4-IBYQVTLZ-59">
          <mxGeometry relative="1" as="geometry">
            <mxPoint x="140" y="380" as="targetPoint" />
          </mxGeometry>
        </mxCell>
        <mxCell id="7iI5UENEsM4-IBYQVTLZ-59" value="phone" style="ellipse;whiteSpace=wrap;html=1;align=center;" vertex="1" parent="1">
          <mxGeometry x="90" y="410" width="40" height="20" as="geometry" />
        </mxCell>
        <mxCell id="7iI5UENEsM4-IBYQVTLZ-61" style="edgeStyle=none;rounded=0;orthogonalLoop=1;jettySize=auto;html=1;exitX=0.5;exitY=0;exitDx=0;exitDy=0;entryX=0.5;entryY=1;entryDx=0;entryDy=0;fontFamily=Tahoma;endArrow=none;endFill=0;" edge="1" parent="1" source="7iI5UENEsM4-IBYQVTLZ-60" target="7iI5UENEsM4-IBYQVTLZ-5">
          <mxGeometry relative="1" as="geometry" />
        </mxCell>
        <mxCell id="7iI5UENEsM4-IBYQVTLZ-60" value="espiration_date" style="ellipse;whiteSpace=wrap;html=1;align=center;" vertex="1" parent="1">
          <mxGeometry x="139.7" y="410" width="99.68" height="20" as="geometry" />
        </mxCell>
        <mxCell id="7iI5UENEsM4-IBYQVTLZ-63" value="passwd" style="ellipse;whiteSpace=wrap;html=1;align=center;" vertex="1" parent="1">
          <mxGeometry x="280.01" y="90" width="50" height="20" as="geometry" />
        </mxCell>
        <mxCell id="7iI5UENEsM4-IBYQVTLZ-65" value="1:N" style="text;html=1;align=center;verticalAlign=middle;resizable=0;points=[];autosize=1;strokeColor=none;fillColor=none;fontFamily=Tahoma;" vertex="1" parent="1">
          <mxGeometry x="285" y="180" width="30" height="20" as="geometry" />
        </mxCell>
        <mxCell id="7iI5UENEsM4-IBYQVTLZ-66" value="1:N" style="text;html=1;align=center;verticalAlign=middle;resizable=0;points=[];autosize=1;strokeColor=none;fillColor=none;fontFamily=Tahoma;" vertex="1" parent="1">
          <mxGeometry x="460" y="180" width="30" height="20" as="geometry" />
        </mxCell>
        <mxCell id="7iI5UENEsM4-IBYQVTLZ-67" value="1:N" style="text;html=1;align=center;verticalAlign=middle;resizable=0;points=[];autosize=1;strokeColor=none;fillColor=none;fontFamily=Tahoma;" vertex="1" parent="1">
          <mxGeometry x="780" y="180" width="30" height="20" as="geometry" />
        </mxCell>
        <mxCell id="7iI5UENEsM4-IBYQVTLZ-68" value="1:N" style="text;html=1;align=center;verticalAlign=middle;resizable=0;points=[];autosize=1;strokeColor=none;fillColor=none;fontFamily=Tahoma;" vertex="1" parent="1">
          <mxGeometry x="610" y="180" width="30" height="20" as="geometry" />
        </mxCell>
        <mxCell id="7iI5UENEsM4-IBYQVTLZ-69" value="1:N" style="text;html=1;align=center;verticalAlign=middle;resizable=0;points=[];autosize=1;strokeColor=none;fillColor=none;fontFamily=Tahoma;" vertex="1" parent="1">
          <mxGeometry x="430" y="380" width="30" height="20" as="geometry" />
        </mxCell>
        <mxCell id="7iI5UENEsM4-IBYQVTLZ-70" value="1:1" style="text;html=1;align=center;verticalAlign=middle;resizable=0;points=[];autosize=1;strokeColor=none;fillColor=none;fontFamily=Tahoma;" vertex="1" parent="1">
          <mxGeometry x="430" y="490" width="30" height="20" as="geometry" />
        </mxCell>
        <mxCell id="7iI5UENEsM4-IBYQVTLZ-71" value="N:N" style="text;html=1;align=center;verticalAlign=middle;resizable=0;points=[];autosize=1;strokeColor=none;fillColor=none;fontFamily=Tahoma;" vertex="1" parent="1">
          <mxGeometry x="360" y="140" width="40" height="20" as="geometry" />
        </mxCell>
        <mxCell id="7iI5UENEsM4-IBYQVTLZ-72" value="N:N" style="text;html=1;align=center;verticalAlign=middle;resizable=0;points=[];autosize=1;strokeColor=none;fillColor=none;fontFamily=Tahoma;" vertex="1" parent="1">
          <mxGeometry x="690" y="140" width="40" height="20" as="geometry" />
        </mxCell>
        <mxCell id="7iI5UENEsM4-IBYQVTLZ-73" value="1:N" style="text;html=1;align=center;verticalAlign=middle;resizable=0;points=[];autosize=1;strokeColor=none;fillColor=none;fontFamily=Tahoma;" vertex="1" parent="1">
          <mxGeometry x="515" y="440" width="30" height="20" as="geometry" />
        </mxCell>
        <mxCell id="7iI5UENEsM4-IBYQVTLZ-74" value="ep_number" style="ellipse;whiteSpace=wrap;html=1;align=center;" vertex="1" parent="1">
          <mxGeometry x="320" y="420" width="80" height="20" as="geometry" />
        </mxCell>
        <mxCell id="7iI5UENEsM4-IBYQVTLZ-75" value="season" style="ellipse;whiteSpace=wrap;html=1;align=center;" vertex="1" parent="1">
          <mxGeometry x="350" y="450" width="50" height="20" as="geometry" />
        </mxCell>
        <mxCell id="7iI5UENEsM4-IBYQVTLZ-81" style="edgeStyle=none;rounded=0;orthogonalLoop=1;jettySize=auto;html=1;exitX=0.5;exitY=0;exitDx=0;exitDy=0;entryX=0.5;entryY=1;entryDx=0;entryDy=0;fontFamily=Tahoma;endArrow=none;endFill=0;" edge="1" parent="1" source="7iI5UENEsM4-IBYQVTLZ-80" target="7iI5UENEsM4-IBYQVTLZ-7">
          <mxGeometry relative="1" as="geometry" />
        </mxCell>
        <mxCell id="7iI5UENEsM4-IBYQVTLZ-80" value="ser_id" style="ellipse;whiteSpace=wrap;html=1;align=center;fontStyle=4" vertex="1" parent="1">
          <mxGeometry x="450" y="590" width="40" height="20" as="geometry" />
        </mxCell>
        <mxCell id="7iI5UENEsM4-IBYQVTLZ-82" value="imdb_score" style="ellipse;whiteSpace=wrap;html=1;align=center;" vertex="1" parent="1">
          <mxGeometry x="640" y="400" width="80" height="20" as="geometry" />
        </mxCell>
        <mxCell id="7iI5UENEsM4-IBYQVTLZ-83" value="director" style="ellipse;whiteSpace=wrap;html=1;align=center;" vertex="1" parent="1">
          <mxGeometry x="570" y="400" width="50" height="20" as="geometry" />
        </mxCell>
      </root>
    </mxGraphModel>
  </diagram>
</mxfile>
